<?xml version="1.0" encoding="UTF-8" standalone="no" ?>
<!DOCTYPE svg PUBLIC "-//W3C//DTD SVG 1.1//EN" "http://www.w3.org/Graphics/SVG/1.1/DTD/svg11.dtd">
<svg xmlns="http://www.w3.org/2000/svg" xmlns:xlink="http://www.w3.org/1999/xlink" version="1.1" width="500" height="500" viewBox="0 0 500 500" xml:space="preserve">
<desc>Created with Fabric.js 3.6.3</desc>
<defs>
</defs>
<g transform="matrix(1.8896423668825597 0 0 1.8896423668825597 244.6521739130435 244.21014352754077)"  >
<g style=""   >
		<g transform="matrix(1 0 0 1 -0.12350077222572509 -11.036002836134344)"  >
<linearGradient id="SVGID_747" gradientUnits="userSpaceOnUse" gradientTransform="matrix(1 0 0 1 -345.99938363582226 257.9479943277313)"  x1="0" y1="0" x2="100" y2="100">
<stop offset="0%" style="stop-color:rgb(125,20,29);stop-opacity: 1"/>
<stop offset="100%" style="stop-color:rgb(255,30,39);stop-opacity: 1"/>
</linearGradient>
<path style="stroke: none; stroke-width: 1; stroke-dasharray: none; stroke-linecap: butt; stroke-dashoffset: 0; stroke-linejoin: miter; stroke-miterlimit: 4; fill: url(#SVGID_747); fill-rule: nonzero; opacity: 1;"  transform=" translate(296.1235007722257, -294.96399716386566)" d="M -246.455 327.152 l -16.86 -64.454 c 0 0 -1.243 -4.756 -6.002 -4.75 l -72.96 0.08 c 0 0 -4.759 0.004 -3.515 4.761 l 15.835 60.538 c 7.148 -15.684 15.203 -33.301 15.795 -34.599 l 0.423 -0.924 l 21.84 -0.021 l -1.048 2.253 c -5.985 12.87 -13.768 29.775 -19.236 41.944 l 62.212 -0.067 C -249.97 331.912 -245.211 331.906 -246.455 327.152 z" stroke-linecap="round" />
</g>
		<g transform="matrix(1 0 0 1 -13.759479799120527 17.476999999999975)"  >
<linearGradient id="SVGID_748" gradientUnits="userSpaceOnUse" gradientTransform="matrix(1 0 0 1 -338.73795959824105 290.95399999999995)"  x1="0" y1="0" x2="100" y2="100">
<stop offset="0%" style="stop-color:rgb(125,20,29);stop-opacity: 1"/>
<stop offset="100%" style="stop-color:rgb(255,30,39);stop-opacity: 1"/>
</linearGradient>
<path style="stroke: none; stroke-width: 1; stroke-dasharray: none; stroke-linecap: butt; stroke-dashoffset: 0; stroke-linejoin: miter; stroke-miterlimit: 4; fill: url(#SVGID_748); fill-rule: nonzero; opacity: 1;"  transform=" translate(309.7594797991205, -323.477)" d="M -296.864 290.954 l -14.839 0.015 c -9.094 19.892 -25.758 56.396 -26.425 58.074 c -1.594 4.007 0.346 6.235 1.171 6.957 h 56.176 l -1.875 -4.804 h -35.137 c -0.044 0.002 -0.107 0.005 -0.184 0.005 c -1.988 0 -3.998 -1.204 -4.006 -3.894 c -0.002 -0.629 -0.004 -1.579 13.149 -30.369 C -303.924 306.194 -298.966 295.487 -296.864 290.954 z" stroke-linecap="round" />
</g>
</g>
</g>
<g transform="matrix(0.8 0 0 0.8000000000000002 249.96000000000004 335.8916599986961)"  >
<path style="stroke: none; stroke-width: 1; stroke-dasharray: none; stroke-linecap: butt; stroke-dashoffset: 0; stroke-linejoin: miter; stroke-miterlimit: 4; fill: rgb(255,255,255); fill-rule: nonzero; opacity: 1;"  transform=" translate(-249.95000000000002, -250)" d="M 76.9 288.8 h 346.2 c 21.4 0 38.8 -17.4 38.8 -38.8 v 0 c 0 -21.4 -17.4 -38.8 -38.8 -38.8 H 76.9 C 55.4 211.2 38 228.6 38 250 v 0 C 38 271.4 55.4 288.8 76.9 288.8 z" stroke-linecap="round" />
</g>
<g transform="matrix(1,0,0,1,252.21260729846801,336.67215999869615)" style=""  ><path fill="#ffffff" opacity="1" d="M-106.25 5.17L-106.25 1.04L-95.89 1.04L-95.89 5.17ZM-106.25-3.11L-106.25-7.30L-95.89-7.30L-95.89-3.11ZM-93.81 9.33L-91.76 7.28L-91.76 1.04L-93.81-1.04L-91.76-3.11L-91.76-9.35L-93.81-11.46L-110.41-11.46L-110.41 9.33Z"/><path fill="#ffffff" opacity="1" d="M-81.10-1.04L-81.10-3.11L-76.97-7.30L-70.73-7.30L-70.73-1.04ZM-81.10 9.33L-81.10 3.12L-70.73 3.12L-70.73 9.33L-66.60 9.33L-66.60-11.46L-79.05-11.46L-85.25-5.19L-85.25 9.33Z"/><path fill="#ffffff" opacity="1" d="M-43.20 9.33L-41.15 7.28L-41.15 3.12L-45.28 3.12L-45.28 5.17L-55.64 5.17L-55.64-7.30L-45.28-7.30L-45.28-5.22L-41.15-5.22L-41.15-9.35L-43.20-11.46L-57.75-11.46L-59.80-9.35L-59.80 7.28L-57.75 9.33Z"/><path fill="#ffffff" opacity="1" d=""/><path fill="#ffffff" opacity="1" d="M-2.33 9.33L-0.28 7.28L-0.28-1.07L-2.33-3.14L-14.78-3.14L-14.78-7.30L-4.41-7.30L-4.41-5.22L-0.28-5.22L-0.28-9.35L-2.33-11.46L-16.88-11.46L-18.93-9.35L-18.93-0.44L-16.88 1.04L-4.41 1.04L-4.41 5.17L-14.78 5.17L-14.78 3.12L-18.93 3.12L-18.93 7.28L-16.88 9.33Z"/><path fill="#ffffff" opacity="1" d="M17.06 9.33L17.06-7.30L24.28-7.30L24.28-11.46L5.63-11.46L5.63-7.30L12.90-7.30L12.90 9.33Z"/><path fill="#ffffff" opacity="1" d="M30.19-11.46L30.19 7.28L32.24 9.33L46.79 9.33L48.84 7.28L48.84-11.46L44.71-11.46L44.71 5.17L34.35 5.17L34.35-11.46Z"/><path fill="#ffffff" opacity="1" d="M74.29-5.22L68.09-11.46L55.64-11.46L55.64 9.33L72.25 9.33L74.29 7.28ZM70.17 5.17L59.80 5.17L59.80-7.30L66.01-7.30L70.17-3.14Z"/><path fill="#ffffff" opacity="1" d="M84.96 9.33L84.96-11.46L80.80-11.46L80.80 9.33Z"/><path fill="#ffffff" opacity="1" d="M95.92 5.17L95.92-7.30L106.28-7.30L106.28 5.17ZM108.36 9.33L110.41 7.28L110.41-9.35L108.36-11.46L93.81-11.46L91.76-9.35L91.76 7.28L93.81 9.33Z"/></g><g transform="matrix(0.93 0 0 -1.42 250 360.45905967706966)"  >
<path style="stroke: none; stroke-width: 1; stroke-dasharray: none; stroke-linecap: butt; stroke-dashoffset: 0; stroke-linejoin: miter; stroke-miterlimit: 4; fill: rgb(255,255,255); fill-rule: nonzero; opacity: 1;"  transform=" translate(-49.95, -50)" d="M 91.7 49 H 8.3 c -0.6 0 -1 0.4 -1 1 s 0.4 1 1 1 h 83.3 c 0.6 0 1 -0.4 1 -1 S 92.2 49 91.7 49 z" stroke-linecap="round" />
</g>
</svg>