<?xml version="1.0" encoding="UTF-8" standalone="no" ?>
<!DOCTYPE svg PUBLIC "-//W3C//DTD SVG 1.1//EN" "http://www.w3.org/Graphics/SVG/1.1/DTD/svg11.dtd">
<svg xmlns="http://www.w3.org/2000/svg" xmlns:xlink="http://www.w3.org/1999/xlink" version="1.1" width="500" height="500" viewBox="0 0 500 500" xml:space="preserve">
<desc>Created with Fabric.js 3.6.3</desc>
<defs>
</defs>
<g transform="matrix(2.5315391084945333 0 0 2.5315391084945333 250.00000000000003 213.08778905305047)"  >
<g style=""   >
		<g transform="matrix(1 0 0 1 -10.000000000000004 4.644869504205936)"  >
<linearGradient id="SVGID_753" gradientUnits="userSpaceOnUse" gradientTransform="matrix(-0.12 1.09 -1.02 -0.11 69.25 13.09)"  x1="11.4" y1="56.31" x2="42.5" y2="39.79">
<stop offset="0%" style="stop-color:rgb(87,46,255);stop-opacity: 1"/>
<stop offset="50%" style="stop-color:rgb(54,76,160);stop-opacity: 1"/>
<stop offset="100%" style="stop-color:rgb(87,46,255);stop-opacity: 1"/>
</linearGradient>
<path style="stroke: none; stroke-width: 1; stroke-dasharray: none; stroke-linecap: butt; stroke-dashoffset: 0; stroke-linejoin: miter; stroke-miterlimit: 4; fill: url(#SVGID_753); fill-rule: nonzero; opacity: 1;"  transform=" translate(-17.049999999999997, -37.044869504205934)" d="M 20 57.4 h -0.2 L 12.1 35.5 L 6.6 19.7 a 7.6 7.6 0 0 1 0.9 -0.9 a 8.9 8.9 0 0 1 6.7 -2.1 L 22 38.9 l 5.5 15.6 A 9.1 9.1 0 0 1 20 57.4 Z" stroke-linecap="round" />
</g>
		<g transform="matrix(1 0 0 1 -19.215726305119606 4.692061539847025)"  >
<linearGradient id="SVGID_754" gradientUnits="userSpaceOnUse" gradientTransform="matrix(-0.11 0.99 -0.99 -0.11 67.84 17.15)"  x1="6.91" y1="61.09" x2="46.14" y2="53.49">
<stop offset="0%" style="stop-color:rgb(108,195,244);stop-opacity: 1"/>
<stop offset="17%" style="stop-color:rgb(128,171,233);stop-opacity: 1"/>
<stop offset="53%" style="stop-color:rgb(178,109,205);stop-opacity: 1"/>
<stop offset="100%" style="stop-color:rgb(250,21,166);stop-opacity: 1"/>
</linearGradient>
<path style="stroke: none; stroke-width: 1; stroke-dasharray: none; stroke-linecap: butt; stroke-dashoffset: 0; stroke-linejoin: miter; stroke-miterlimit: 4; fill: url(#SVGID_754); fill-rule: nonzero; opacity: 1;"  transform=" translate(-7.834273694880395, -37.09206153984702)" d="M 5.3 57.5 a 4.4 4.4 0 0 1 -3.9 -4.9 l 3.1 -28 a 9 9 0 0 1 2.4 -5.2 l 0.8 -0.8 a 8.9 8.9 0 0 1 6.6 -1.9 L 10.2 53.6 a 4.7 4.7 0 0 1 -1.6 3 A 4.3 4.3 0 0 1 5.3 57.5 Z" stroke-linecap="round" />
</g>
		<g transform="matrix(1 0 0 1 8.599999999999998 10.402951928249813)"  >
<linearGradient id="SVGID_755" gradientUnits="userSpaceOnUse" gradientTransform="matrix(-0.12 1.11 -1.06 -0.12 69.45 12.05)"  x1="20.54" y1="35.95" x2="40.62" y2="20.96">
<stop offset="0%" style="stop-color:rgb(87,46,255);stop-opacity: 1"/>
<stop offset="50%" style="stop-color:rgb(54,76,160);stop-opacity: 1"/>
<stop offset="100%" style="stop-color:rgb(87,46,255);stop-opacity: 1"/>
</linearGradient>
<path style="stroke: none; stroke-width: 1; stroke-dasharray: none; stroke-linecap: butt; stroke-dashoffset: 0; stroke-linejoin: miter; stroke-miterlimit: 4; fill: url(#SVGID_755); fill-rule: nonzero; opacity: 1;"  transform=" translate(-35.65, -42.80295192824981)" d="M 39.2 57.3 L 30.7 41.6 L 24.9 30.9 l 0.5 -0.5 A 8.4 8.4 0 0 1 32 28.3 l 0.2 0.2 l 8.4 15.7 l 5.8 10.6 l -0.5 0.4 A 8.5 8.5 0 0 1 39.2 57.3 Z" stroke-linecap="round" />
</g>
		<g transform="matrix(1 0 0 1 17.415163370336742 15.012762999614104)"  >
<linearGradient id="SVGID_756" gradientUnits="userSpaceOnUse" gradientTransform="matrix(-0.11 0.99 -1 -0.11 67.91 17.16)"  x1="41.25" y1="16.79" x2="24.4" y2="24.03">
<stop offset="0%" style="stop-color:rgb(108,195,244);stop-opacity: 1"/>
<stop offset="17%" style="stop-color:rgb(128,171,233);stop-opacity: 1"/>
<stop offset="53%" style="stop-color:rgb(178,109,205);stop-opacity: 1"/>
<stop offset="100%" style="stop-color:rgb(250,21,166);stop-opacity: 1"/>
</linearGradient>
<path style="stroke: none; stroke-width: 1; stroke-dasharray: none; stroke-linecap: butt; stroke-dashoffset: 0; stroke-linejoin: miter; stroke-miterlimit: 4; fill: url(#SVGID_756); fill-rule: nonzero; opacity: 1;"  transform=" translate(-44.46516337033674, -47.4127629996141)" d="M 39.1 57.3 l 1.8 -15.9 a 4.4 4.4 0 0 1 1.7 -3 a 4 4 0 0 1 3.2 -0.9 a 4.4 4.4 0 0 1 4 4.9 L 49 49.5 a 9 9 0 0 1 -2.9 5.6 c -0.1 0.1 -0.3 0.2 -0.4 0.4 A 8.9 8.9 0 0 1 39.1 57.3 Z" stroke-linecap="round" />
</g>
		<g transform="matrix(1 0 0 1 -1.150000000000004 10.37508922163761)"  >
<linearGradient id="SVGID_757" gradientUnits="userSpaceOnUse" gradientTransform="matrix(-0.11 0.96 -1 -0.11 67.76 18.5)"  x1="16.33" y1="41.96" x2="43.34" y2="35.4">
<stop offset="0%" style="stop-color:rgb(108,195,244);stop-opacity: 1"/>
<stop offset="17%" style="stop-color:rgb(128,171,233);stop-opacity: 1"/>
<stop offset="53%" style="stop-color:rgb(178,109,205);stop-opacity: 1"/>
<stop offset="100%" style="stop-color:rgb(250,21,166);stop-opacity: 1"/>
</linearGradient>
<path style="stroke: none; stroke-width: 1; stroke-dasharray: none; stroke-linecap: butt; stroke-dashoffset: 0; stroke-linejoin: miter; stroke-miterlimit: 4; fill: url(#SVGID_757); fill-rule: nonzero; opacity: 1;"  transform=" translate(-25.9, -42.77508922163761)" d="M 19.8 57.3 l 2.4 -21.5 A 8.9 8.9 0 0 1 25 30.5 a 1 1 0 0 1 0.5 -0.4 a 8.9 8.9 0 0 1 6.4 -1.9 H 32 L 29.7 49.8 a 8.8 8.8 0 0 1 -2.5 5 A 8.6 8.6 0 0 1 19.8 57.3 Z" stroke-linecap="round" />
</g>
</g>
</g>
<g transform="matrix(1,0,0,1,245.28947368421052,317.36823569157156)" style=""  ><path fill="#ffffff" opacity="1" d="M-28.99-9.03L-28.99-13.55L-17.65-13.55L-17.65-9.03ZM-28.99-18.10L-28.99-22.68L-17.65-22.68L-17.65-18.10ZM-15.37-4.48L-13.13-6.72L-13.13-13.55L-15.37-15.82L-13.13-18.10L-13.13-24.92L-15.37-27.23L-33.54-27.23L-33.54-4.48Z"/><path fill="#ffffff" opacity="1" d="M-5.66-15.82L-5.66-18.10L-1.14-22.68L5.69-22.68L5.69-15.82ZM-5.66-4.48L-5.66-11.27L5.69-11.27L5.69-4.48L10.20-4.48L10.20-27.23L-3.41-27.23L-10.21-20.37L-10.21-4.48Z"/><path fill="#ffffff" opacity="1" d="M31.62-4.48L33.87-6.72L33.87-11.27L29.35-11.27L29.35-9.03L18.01-9.03L18.01-22.68L29.35-22.68L29.35-20.41L33.87-20.41L33.87-24.92L31.62-27.23L15.70-27.23L13.46-24.92L13.46-6.72L15.70-4.48Z"/><path fill="#ffffff" opacity="1" d="M-106.57 13.56L-106.57 11.28L-102.05 6.70L-95.23 6.70L-95.23 13.56ZM-106.57 24.90L-106.57 18.11L-95.23 18.11L-95.23 24.90L-90.71 24.90L-90.71 2.15L-104.33 2.15L-111.12 9.01L-111.12 24.90Z"/><path fill="#ffffff" opacity="1" d="M-87.46 2.15L-87.46 22.66L-85.21 24.90L-69.29 24.90L-67.05 22.66L-67.05 2.15L-71.56 2.15L-71.56 20.35L-82.91 20.35L-82.91 2.15Z"/><path fill="#ffffff" opacity="1" d="M-43.39 8.97L-50.18 2.15L-63.80 2.15L-63.80 24.90L-45.63 24.90L-43.39 22.66ZM-47.90 20.35L-59.25 20.35L-59.25 6.70L-52.45 6.70L-47.90 11.25Z"/><path fill="#ffffff" opacity="1" d="M-35.91 24.90L-35.91 2.15L-40.46 2.15L-40.46 24.90Z"/><path fill="#ffffff" opacity="1" d="M-28.11 20.35L-28.11 6.70L-16.77 6.70L-16.77 20.35ZM-14.49 24.90L-12.25 22.66L-12.25 4.46L-14.49 2.15L-30.42 2.15L-32.66 4.46L-32.66 22.66L-30.42 24.90Z"/><path fill="#ffffff" opacity="1" d="M2.02 20.35L-0.26 20.35L-4.78 15.83L-4.78 2.15L-9.33 2.15L-9.33 18.11L-2.53 24.90L4.29 24.90L11.08 18.11L11.08 2.15L6.57 2.15L6.57 15.83Z"/><path fill="#ffffff" opacity="1" d="M18.56 24.90L18.56 2.15L14.01 2.15L14.01 24.90Z"/><path fill="#ffffff" opacity="1" d="M39.98 24.90L42.22 22.66L42.22 13.52L39.98 11.25L26.36 11.25L26.36 6.70L37.70 6.70L37.70 8.97L42.22 8.97L42.22 4.46L39.98 2.15L24.05 2.15L21.81 4.46L21.81 14.21L24.05 15.83L37.70 15.83L37.70 20.35L26.36 20.35L26.36 18.11L21.81 18.11L21.81 22.66L24.05 24.90Z"/><path fill="#ffffff" opacity="1" d="M45.47 2.15L45.47 22.66L47.71 24.90L63.64 24.90L65.88 22.66L65.88 2.15L61.36 2.15L61.36 20.35L50.02 20.35L50.02 2.15Z"/><path fill="#ffffff" opacity="1" d="M73.35 13.56L73.35 11.28L77.87 6.70L84.70 6.70L84.70 13.56ZM73.35 24.90L73.35 18.11L84.70 18.11L84.70 24.90L89.21 24.90L89.21 2.15L75.60 2.15L68.80 9.01L68.80 24.90Z"/><path fill="#ffffff" opacity="1" d="M92.46 2.15L92.46 24.90L111.77 24.90L111.77 20.35L97.01 20.35L97.01 2.15Z"/></g></svg>